<svg xmlns="http://www.w3.org/2000/svg" xmlns:xlink="http://www.w3.org/1999/xlink" width="900" zoomAndPan="magnify" viewBox="0 0 675 225" height="300" preserveAspectRatio="xMidYMid meet" version="1.0"><path fill="#1b1b1b" d="M 254.808594 81.109375 L 286.417969 81.109375 L 304.136719 160.253906 L 305.492188 160.253906 L 326.742188 81.109375 L 356.753906 81.109375 L 378.679688 160.253906 L 380.035156 160.253906 L 397.125 81.109375 L 428.683594 81.109375 L 399.738281 197.089844 L 358.980469 197.089844 L 342.957031 132.417969 L 341.214844 132.417969 L 325.191406 197.089844 L 284.191406 197.089844 Z M 254.808594 81.109375 " fill-opacity="1" fill-rule="nonzero"/><path fill="#1b1b1b" d="M 429.773438 81.109375 L 463.753906 81.109375 L 463.753906 197.089844 L 429.773438 197.089844 Z M 446.667969 61.84375 C 441.402344 61.84375 437.007812 60.050781 433.5 56.46875 C 430.015625 52.886719 428.273438 48.53125 428.273438 43.398438 C 428.273438 38.148438 430.015625 33.71875 433.5 30.136719 C 437.007812 26.554688 441.402344 24.765625 446.667969 24.765625 C 451.917969 24.765625 456.347656 26.554688 459.929688 30.136719 C 463.511719 33.71875 465.304688 38.148438 465.304688 43.398438 C 465.304688 48.53125 463.511719 52.886719 459.929688 56.46875 C 456.347656 60.050781 451.917969 61.84375 446.667969 61.84375 Z M 446.667969 61.84375 " fill-opacity="1" fill-rule="nonzero"/><path fill="#1b1b1b" d="M 516.792969 199.074219 C 507.015625 199.074219 498.542969 197.246094 491.378906 193.605469 C 484.214844 189.925781 478.757812 185.132812 475.019531 179.226562 C 471.304688 173.296875 469.453125 167.054688 469.453125 160.496094 L 469.453125 158.945312 L 502.5625 158.945312 L 502.5625 160.253906 C 502.5625 163.617188 503.867188 166.582031 506.484375 169.160156 C 509.121094 171.714844 512.847656 172.984375 517.664062 172.984375 C 521.753906 172.984375 525.046875 172.003906 527.539062 170.03125 C 530.019531 168.070312 531.265625 165.46875 531.265625 162.238281 C 531.265625 159.308594 530.082031 156.960938 527.734375 155.21875 C 525.410156 153.476562 522.503906 152.300781 519.019531 151.683594 L 506.484375 149.070312 C 498.023438 147.617188 490.21875 144.230469 483.054688 138.90625 C 475.890625 133.558594 472.308594 125.328125 472.308594 114.21875 C 472.308594 102.964844 476.351562 94.226562 484.457031 88.03125 C 492.589844 81.8125 503.007812 78.6875 515.726562 78.6875 C 525.214844 78.6875 533.394531 80.382812 540.269531 83.769531 C 547.144531 87.136719 552.324219 91.550781 555.808594 97.035156 C 559.316406 102.492188 561.085938 108.300781 561.085938 114.460938 L 561.085938 115.527344 L 527.976562 115.527344 L 527.976562 114.894531 C 527.976562 111.96875 526.875 109.257812 524.683594 106.765625 C 522.480469 104.285156 519.128906 103.035156 514.613281 103.035156 C 510.804688 103.035156 507.765625 103.957031 505.515625 105.796875 C 503.25 107.609375 502.125 110.128906 502.125 113.347656 C 502.125 119.058594 506.871094 122.785156 516.359375 124.527344 L 529.960938 127.578125 C 539.15625 129.648438 546.925781 133.386719 553.292969 138.808594 C 559.644531 144.207031 562.828125 151.867188 562.828125 161.800781 C 562.828125 169.390625 560.804688 176.007812 556.777344 181.648438 C 552.769531 187.265625 547.265625 191.570312 540.269531 194.574219 C 533.261719 197.574219 525.433594 199.074219 516.792969 199.074219 Z M 516.792969 199.074219 " fill-opacity="1" fill-rule="nonzero"/><path fill="#1b1b1b" d="M 615.902344 199.074219 C 603.628906 199.074219 593.296875 196.265625 584.871094 190.652344 C 576.472656 185.011719 570.265625 177.617188 566.234375 168.480469 C 562.230469 159.359375 560.234375 149.53125 560.234375 139.003906 C 560.234375 128.488281 562.230469 118.660156 566.234375 109.523438 C 570.265625 100.398438 576.472656 92.96875 584.871094 87.257812 C 593.296875 81.542969 603.773438 78.6875 616.335938 78.6875 C 632.699219 78.6875 645.695312 83.855469 655.351562 94.179688 C 664.996094 104.476562 669.824219 119.421875 669.824219 139.003906 L 669.824219 148.441406 L 593.101562 148.441406 L 593.101562 150.183594 C 593.101562 156.164062 595.183594 161.304688 599.347656 165.625 C 603.507812 169.957031 608.796875 172.113281 615.222656 172.113281 C 620.183594 172.113281 624.433594 170.988281 627.953125 168.722656 C 631.464844 166.4375 633.957031 163.398438 635.410156 159.625 L 668.953125 159.625 C 666.011719 171.144531 659.976562 180.609375 650.851562 187.988281 C 641.714844 195.382812 630.058594 199.074219 615.902344 199.074219 Z M 637.152344 126.515625 C 637.019531 118.613281 635.019531 112.765625 631.148438 108.992188 C 627.277344 105.191406 622.109375 103.277344 615.660156 103.277344 C 609.101562 103.277344 603.894531 105.335938 600.023438 109.425781 C 596.152344 113.492188 594.128906 119.191406 593.972656 126.515625 Z M 637.152344 126.515625 " fill-opacity="1" fill-rule="nonzero"/><path fill="#1b1b1b" d="M 120.359375 29.734375 C 113.898438 29.734375 108.804688 30.945312 105.066406 33.367188 C 101.347656 35.761719 98.578125 38.910156 96.738281 42.804688 C 94.921875 46.679688 92.9375 52.339844 90.785156 59.796875 L 79.117188 100.3125 L 152.648438 100.3125 L 164.3125 59.796875 C 165.789062 54.835938 166.78125 51.105469 167.265625 48.613281 C 167.773438 46.132812 168.042969 44.0625 168.042969 42.417969 C 168.042969 37.613281 166.417969 34.308594 163.199219 32.496094 C 159.96875 30.65625 154.886719 29.734375 147.953125 29.734375 L 149.40625 25.28125 L 221.480469 25.28125 L 219.980469 29.734375 C 213.363281 29.734375 208.132812 30.824219 204.296875 32.980469 C 200.484375 35.144531 197.628906 38.253906 195.730469 42.320312 C 193.816406 46.363281 191.722656 52.269531 189.4375 60.039062 L 161.117188 158.207031 C 158.625 167.148438 157.390625 172.945312 157.390625 175.582031 C 157.390625 180.558594 159 183.957031 162.230469 185.796875 C 165.453125 187.613281 170.21875 188.507812 176.511719 188.507812 L 175.253906 192.960938 L 104.726562 192.960938 L 105.9375 188.507812 C 112.230469 188.507812 117.191406 187.480469 120.84375 185.410156 C 124.488281 183.316406 127.34375 180.328125 129.414062 176.453125 C 131.46875 172.558594 133.503906 167.039062 135.511719 159.898438 L 150.179688 108.734375 L 76.648438 108.734375 L 65.953125 146.007812 C 63.144531 155.628906 61.183594 162.550781 60.09375 166.773438 C 59.03125 170.972656 58.496094 173.984375 58.496094 175.824219 C 58.496094 180.121094 59.972656 183.316406 62.949219 185.410156 C 65.953125 187.480469 70.515625 188.507812 76.648438 188.507812 L 75.390625 192.960938 L 5.832031 192.960938 L 5.832031 188.507812 C 13.285156 188.507812 19 187.273438 22.96875 184.78125 C 26.9375 182.300781 29.867188 178.828125 31.777344 174.375 C 33.675781 169.894531 36.132812 162.417969 39.136719 151.960938 L 65.710938 59.796875 C 68.191406 51.375 69.4375 45.589844 69.4375 42.417969 C 69.4375 37.285156 67.648438 33.898438 64.066406 32.253906 C 60.507812 30.582031 55.507812 29.734375 49.058594 29.734375 L 50.558594 25.28125 L 121.863281 25.28125 Z M 120.359375 29.734375 " fill-opacity="1" fill-rule="nonzero"/><path fill="#1b1b1b" d="M 246.289062 29.734375 C 249.773438 29.734375 252.75 30.980469 255.242188 33.464844 C 257.722656 35.957031 258.96875 38.859375 258.96875 42.175781 C 258.96875 45.660156 257.722656 48.652344 255.242188 51.132812 C 252.75 53.625 249.773438 54.859375 246.289062 54.859375 C 242.996094 54.859375 240.101562 53.625 237.621094 51.132812 C 235.128906 48.652344 233.894531 45.660156 233.894531 42.175781 C 233.894531 38.859375 235.128906 35.957031 237.621094 33.464844 C 240.101562 30.980469 242.996094 29.734375 246.289062 29.734375 Z M 221.9375 170.839844 C 220.609375 175.171875 219.953125 178.148438 219.953125 179.796875 C 219.953125 182.445312 221.371094 183.765625 224.214844 183.765625 C 226.175781 183.765625 228.933594 182.238281 232.492188 179.164062 C 236.074219 176.105469 239.765625 171.589844 243.578125 165.613281 L 247.546875 168.128906 C 242.089844 176.589844 235.953125 183.351562 229.152344 188.410156 C 222.375 193.445312 216.15625 195.960938 210.515625 195.960938 C 207.222656 195.960938 204.707031 194.875 202.964844 192.71875 C 201.222656 190.566406 200.351562 187.660156 200.351562 184.007812 C 200.351562 181.367188 200.847656 178.292969 201.851562 174.808594 L 221.695312 106.507812 C 222.859375 102.382812 223.441406 99.476562 223.441406 97.792969 C 223.441406 95.664062 222.6875 93.777344 221.214844 92.132812 C 219.722656 90.460938 217.496094 89.613281 214.53125 89.613281 C 213.371094 89.613281 210.226562 90.039062 205.09375 90.871094 L 206.304688 86.660156 L 244.0625 79.449219 L 248.273438 79.449219 Z M 221.9375 170.839844 " fill-opacity="1" fill-rule="nonzero"/></svg>