<svg xmlns="http://www.w3.org/2000/svg" xmlns:xlink="http://www.w3.org/1999/xlink" width="1920" zoomAndPan="magnify" viewBox="0 0 1440 809.999993" height="1080" preserveAspectRatio="xMidYMid meet" version="1.0"><rect x="-144" width="1728" fill="#ffffff" y="-80.999999" height="971.999992" fill-opacity="1"/><rect x="-144" width="1728" fill="#ffffff" y="-80.999999" height="971.999992" fill-opacity="1"/><path fill="#1b1b1b" d="M 543.835938 340.3125 L 611.277344 340.3125 L 649.082031 509.179688 L 651.972656 509.179688 L 697.3125 340.3125 L 761.347656 340.3125 L 808.132812 509.179688 L 811.023438 509.179688 L 847.484375 340.3125 L 914.824219 340.3125 L 853.0625 587.777344 L 766.097656 587.777344 L 731.910156 449.792969 L 728.195312 449.792969 L 694.007812 587.777344 L 606.527344 587.777344 Z M 543.835938 340.3125 " fill-opacity="1" fill-rule="nonzero"/><path fill="#1b1b1b" d="M 917.144531 340.3125 L 989.648438 340.3125 L 989.648438 587.777344 L 917.144531 587.777344 Z M 953.1875 299.207031 C 941.957031 299.207031 932.585938 295.386719 925.097656 287.742188 C 917.660156 280.101562 913.941406 270.804688 913.941406 259.859375 C 913.941406 248.652344 917.660156 239.203125 925.097656 231.558594 C 932.585938 223.917969 941.957031 220.09375 953.1875 220.09375 C 964.394531 220.09375 973.84375 223.917969 981.488281 231.558594 C 989.132812 239.203125 992.953125 248.652344 992.953125 259.859375 C 992.953125 270.804688 989.132812 280.101562 981.488281 287.742188 C 973.84375 295.386719 964.394531 299.207031 953.1875 299.207031 Z M 953.1875 299.207031 " fill-opacity="1" fill-rule="nonzero"/><path fill="#1b1b1b" d="M 1102.8125 592.011719 C 1081.949219 592.011719 1063.875 588.113281 1048.589844 580.339844 C 1033.304688 572.492188 1021.660156 562.265625 1013.679688 549.664062 C 1005.753906 537.011719 1001.804688 523.691406 1001.804688 509.695312 L 1001.804688 506.390625 L 1072.449219 506.390625 L 1072.449219 509.179688 C 1072.449219 516.355469 1075.238281 522.683594 1080.8125 528.183594 C 1086.441406 533.632812 1094.394531 536.34375 1104.671875 536.34375 C 1113.398438 536.34375 1120.421875 534.25 1125.742188 530.042969 C 1131.035156 525.859375 1133.695312 520.308594 1133.695312 513.414062 C 1133.695312 507.164062 1131.164062 502.15625 1126.15625 498.4375 C 1121.195312 494.71875 1115 492.214844 1107.5625 490.898438 L 1080.8125 485.320312 C 1062.765625 482.222656 1046.113281 474.992188 1030.824219 463.632812 C 1015.539062 452.21875 1007.898438 434.660156 1007.898438 410.957031 C 1007.898438 386.945312 1016.523438 368.304688 1033.820312 355.082031 C 1051.171875 341.8125 1073.402344 335.148438 1100.539062 335.148438 C 1120.785156 335.148438 1138.238281 338.765625 1152.90625 345.996094 C 1167.570312 353.171875 1178.621094 362.597656 1186.058594 374.292969 C 1193.546875 385.9375 1197.316406 398.332031 1197.316406 411.476562 L 1197.316406 413.746094 L 1126.671875 413.746094 L 1126.671875 412.40625 C 1126.671875 406.15625 1124.320312 400.371094 1119.648438 395.054688 C 1114.949219 389.761719 1107.796875 387.101562 1098.164062 387.101562 C 1090.03125 387.101562 1083.550781 389.0625 1078.75 392.988281 C 1073.921875 396.859375 1071.519531 402.230469 1071.519531 409.097656 C 1071.519531 421.285156 1081.640625 429.238281 1101.882812 432.957031 L 1130.90625 439.464844 C 1150.527344 443.878906 1167.105469 451.859375 1180.6875 463.425781 C 1194.242188 474.941406 1201.035156 491.285156 1201.035156 512.484375 C 1201.035156 528.671875 1196.722656 542.796875 1188.125 554.828125 C 1179.578125 566.808594 1167.828125 576.003906 1152.90625 582.40625 C 1137.953125 588.808594 1121.25 592.011719 1102.8125 592.011719 Z M 1102.8125 592.011719 " fill-opacity="1" fill-rule="nonzero"/><path fill="#1b1b1b" d="M 1314.273438 592.011719 C 1288.089844 592.011719 1266.039062 586.019531 1248.070312 574.039062 C 1230.152344 562.007812 1216.90625 546.230469 1208.304688 526.738281 C 1199.761719 507.269531 1195.5 486.300781 1195.5 463.839844 C 1195.5 441.402344 1199.761719 420.433594 1208.304688 400.941406 C 1216.90625 381.472656 1230.152344 365.617188 1248.070312 353.429688 C 1266.039062 341.242188 1288.402344 335.148438 1315.203125 335.148438 C 1350.113281 335.148438 1377.84375 346.175781 1398.445312 368.199219 C 1419.027344 390.171875 1429.328125 422.0625 1429.328125 463.839844 L 1429.328125 483.976562 L 1265.628906 483.976562 L 1265.628906 487.695312 C 1265.628906 500.453125 1270.070312 511.425781 1278.949219 520.644531 C 1287.832031 529.886719 1299.117188 534.484375 1312.828125 534.484375 C 1323.414062 534.484375 1332.476562 532.082031 1339.988281 527.253906 C 1347.476562 522.375 1352.796875 515.890625 1355.894531 507.835938 L 1427.46875 507.835938 C 1421.195312 532.417969 1408.3125 552.609375 1388.84375 568.359375 C 1369.347656 584.136719 1344.484375 592.011719 1314.273438 592.011719 Z M 1359.613281 437.191406 C 1359.328125 420.332031 1355.070312 407.859375 1346.804688 399.804688 C 1338.542969 391.695312 1327.519531 387.617188 1313.757812 387.617188 C 1299.761719 387.617188 1288.660156 392.007812 1280.398438 400.734375 C 1272.132812 409.410156 1267.824219 421.570312 1267.488281 437.191406 Z M 1359.613281 437.191406 " fill-opacity="1" fill-rule="nonzero"/><path fill="#1b1b1b" d="M 256.972656 230.703125 C 243.183594 230.703125 232.3125 233.285156 224.335938 238.449219 C 216.40625 243.5625 210.496094 250.273438 206.570312 258.589844 C 202.699219 266.851562 198.464844 278.933594 193.867188 294.839844 L 168.976562 381.285156 L 325.859375 381.285156 L 350.75 294.839844 C 353.902344 284.253906 356.019531 276.300781 357.050781 270.980469 C 358.136719 265.6875 358.703125 261.273438 358.703125 257.761719 C 358.703125 247.511719 355.242188 240.460938 348.375 236.589844 C 341.480469 232.664062 330.636719 230.703125 315.84375 230.703125 L 318.941406 221.199219 L 472.726562 221.199219 L 469.523438 230.703125 C 455.402344 230.703125 444.246094 233.027344 436.0625 237.621094 C 427.929688 242.246094 421.835938 248.878906 417.78125 257.554688 C 413.699219 266.179688 409.234375 278.78125 404.355469 295.355469 L 343.933594 504.8125 C 338.617188 523.890625 335.980469 536.261719 335.980469 541.890625 C 335.980469 552.5 339.417969 559.757812 346.308594 563.679688 C 353.179688 567.554688 363.351562 569.464844 376.777344 569.464844 L 374.09375 578.96875 L 223.613281 578.96875 L 226.195312 569.464844 C 239.621094 569.464844 250.207031 567.269531 258.003906 562.855469 C 265.777344 558.386719 271.871094 552.011719 276.285156 543.75 C 280.675781 535.433594 285.011719 523.660156 289.296875 508.425781 L 320.59375 399.257812 L 163.707031 399.257812 L 140.882812 478.785156 C 134.894531 499.3125 130.710938 514.082031 128.386719 523.09375 C 126.113281 532.050781 124.976562 538.480469 124.976562 542.40625 C 124.976562 551.570312 128.128906 558.386719 134.480469 562.855469 C 140.882812 567.269531 150.617188 569.464844 163.707031 569.464844 L 161.023438 578.96875 L 12.609375 578.96875 L 12.609375 569.464844 C 28.515625 569.464844 40.699219 566.832031 49.171875 561.511719 C 57.640625 556.21875 63.886719 548.808594 67.96875 539.308594 C 72.019531 529.753906 77.261719 513.796875 83.664062 491.488281 L 140.367188 294.839844 C 145.660156 276.871094 148.320312 264.527344 148.320312 257.761719 C 148.320312 246.816406 144.5 239.585938 136.855469 236.074219 C 129.265625 232.511719 118.601562 230.703125 104.839844 230.703125 L 108.039062 221.199219 L 260.171875 221.199219 Z M 256.972656 230.703125 " fill-opacity="1" fill-rule="nonzero"/><path fill="#1b1b1b" d="M 525.652344 230.703125 C 533.089844 230.703125 539.441406 233.363281 544.761719 238.65625 C 550.054688 243.972656 552.710938 250.171875 552.710938 257.246094 C 552.710938 264.683594 550.054688 271.058594 544.761719 276.351562 C 539.441406 281.671875 533.089844 284.304688 525.652344 284.304688 C 518.628906 284.304688 512.457031 281.671875 507.164062 276.351562 C 501.847656 271.058594 499.210938 264.683594 499.210938 257.246094 C 499.210938 250.171875 501.847656 243.972656 507.164062 238.65625 C 512.457031 233.363281 518.628906 230.703125 525.652344 230.703125 Z M 473.703125 531.765625 C 470.863281 541.011719 469.46875 547.363281 469.46875 550.875 C 469.46875 556.527344 472.488281 559.34375 478.554688 559.34375 C 482.738281 559.34375 488.625 556.089844 496.21875 549.53125 C 503.859375 543 511.734375 533.367188 519.867188 520.613281 L 528.339844 525.984375 C 516.691406 544.03125 503.601562 558.464844 489.089844 569.257812 C 474.632812 580 461.359375 585.371094 449.328125 585.371094 C 442.304688 585.371094 436.933594 583.046875 433.214844 578.449219 C 429.496094 573.855469 427.640625 567.65625 427.640625 559.859375 C 427.640625 554.230469 428.699219 547.671875 430.839844 540.238281 L 473.1875 394.507812 C 475.664062 385.703125 476.902344 379.503906 476.902344 375.917969 C 476.902344 371.371094 475.304688 367.34375 472.152344 363.832031 C 468.976562 360.269531 464.226562 358.460938 457.898438 358.460938 C 455.421875 358.460938 448.707031 359.367188 437.761719 361.148438 L 440.34375 352.160156 L 520.902344 336.773438 L 529.886719 336.773438 Z M 473.703125 531.765625 " fill-opacity="1" fill-rule="nonzero"/></svg>