<svg xmlns="http://www.w3.org/2000/svg" xmlns:xlink="http://www.w3.org/1999/xlink" width="500" zoomAndPan="magnify" viewBox="0 0 375 374.999991" height="500" preserveAspectRatio="xMidYMid meet" version="1.0"><defs><g/><clipPath id="bfc017311e"><rect x="0" width="137" y="0" height="104"/></clipPath><clipPath id="bd6ed5dd8d"><rect x="0" width="87" y="0" height="81"/></clipPath></defs><g transform="matrix(1, 0, 0, 1, 169, 125)"><g clip-path="url(#bfc017311e)"><g fill="#1b1b1b" fill-opacity="1"><g transform="translate(1.172035, 84.117917)"><g><path d="M 1.125 -37.4375 L 11.328125 -37.4375 L 17.046875 -11.890625 L 17.484375 -11.890625 L 24.34375 -37.4375 L 34.03125 -37.4375 L 41.109375 -11.890625 L 41.546875 -11.890625 L 47.0625 -37.4375 L 57.25 -37.4375 L 47.90625 0 L 34.75 0 L 29.578125 -20.875 L 29.015625 -20.875 L 23.84375 0 L 10.609375 0 Z M 1.125 -37.4375 "/></g></g></g><g fill="#1b1b1b" fill-opacity="1"><g transform="translate(53.82004, 84.117917)"><g><path d="M 4.953125 -37.4375 L 15.921875 -37.4375 L 15.921875 0 L 4.953125 0 Z M 10.40625 -43.65625 C 8.707031 -43.65625 7.289062 -44.234375 6.15625 -45.390625 C 5.03125 -46.546875 4.46875 -47.953125 4.46875 -49.609375 C 4.46875 -51.304688 5.03125 -52.734375 6.15625 -53.890625 C 7.289062 -55.046875 8.707031 -55.625 10.40625 -55.625 C 12.101562 -55.625 13.53125 -55.046875 14.6875 -53.890625 C 15.84375 -52.734375 16.421875 -51.304688 16.421875 -49.609375 C 16.421875 -47.953125 15.84375 -46.546875 14.6875 -45.390625 C 13.53125 -44.234375 12.101562 -43.65625 10.40625 -43.65625 Z M 10.40625 -43.65625 "/></g></g></g><g fill="#1b1b1b" fill-opacity="1"><g transform="translate(69.03418, 84.117917)"><g><path d="M 17.828125 0.640625 C 14.671875 0.640625 11.9375 0.0507812 9.625 -1.125 C 7.3125 -2.3125 5.550781 -3.859375 4.34375 -5.765625 C 3.144531 -7.679688 2.546875 -9.695312 2.546875 -11.8125 L 2.546875 -12.3125 L 13.234375 -12.3125 L 13.234375 -11.890625 C 13.234375 -10.804688 13.65625 -9.847656 14.5 -9.015625 C 15.351562 -8.191406 16.554688 -7.78125 18.109375 -7.78125 C 19.429688 -7.78125 20.492188 -8.097656 21.296875 -8.734375 C 22.097656 -9.367188 22.5 -10.207031 22.5 -11.25 C 22.5 -12.195312 22.117188 -12.953125 21.359375 -13.515625 C 20.609375 -14.078125 19.671875 -14.457031 18.546875 -14.65625 L 14.5 -15.5 C 11.769531 -15.96875 9.25 -17.0625 6.9375 -18.78125 C 4.625 -20.507812 3.46875 -23.164062 3.46875 -26.75 C 3.46875 -30.382812 4.773438 -33.203125 7.390625 -35.203125 C 10.015625 -37.210938 13.378906 -38.21875 17.484375 -38.21875 C 20.546875 -38.21875 23.1875 -37.671875 25.40625 -36.578125 C 27.625 -35.492188 29.296875 -34.066406 30.421875 -32.296875 C 31.554688 -30.535156 32.125 -28.660156 32.125 -26.671875 L 32.125 -26.328125 L 21.4375 -26.328125 L 21.4375 -26.53125 C 21.4375 -27.476562 21.082031 -28.351562 20.375 -29.15625 C 19.664062 -29.957031 18.582031 -30.359375 17.125 -30.359375 C 15.894531 -30.359375 14.914062 -30.0625 14.1875 -29.46875 C 13.457031 -28.882812 13.09375 -28.070312 13.09375 -27.03125 C 13.09375 -25.1875 14.625 -23.984375 17.6875 -23.421875 L 22.078125 -22.4375 C 25.046875 -21.769531 27.554688 -20.5625 29.609375 -18.8125 C 31.660156 -17.070312 32.6875 -14.597656 32.6875 -11.390625 C 32.6875 -8.941406 32.035156 -6.804688 30.734375 -4.984375 C 29.441406 -3.171875 27.664062 -1.78125 25.40625 -0.8125 C 23.144531 0.15625 20.617188 0.640625 17.828125 0.640625 Z M 17.828125 0.640625 "/></g></g></g><g fill="#1b1b1b" fill-opacity="1"><g transform="translate(98.259479, 84.117917)"><g><path d="M 20.59375 0.640625 C 16.632812 0.640625 13.296875 -0.265625 10.578125 -2.078125 C 7.867188 -3.898438 5.863281 -6.285156 4.5625 -9.234375 C 3.269531 -12.179688 2.625 -15.351562 2.625 -18.75 C 2.625 -22.144531 3.269531 -25.316406 4.5625 -28.265625 C 5.863281 -31.210938 7.867188 -33.609375 10.578125 -35.453125 C 13.296875 -37.296875 16.679688 -38.21875 20.734375 -38.21875 C 26.015625 -38.21875 30.210938 -36.550781 33.328125 -33.21875 C 36.441406 -29.894531 38 -25.070312 38 -18.75 L 38 -15.703125 L 13.234375 -15.703125 L 13.234375 -15.140625 C 13.234375 -13.210938 13.90625 -11.550781 15.25 -10.15625 C 16.59375 -8.757812 18.300781 -8.0625 20.375 -8.0625 C 21.976562 -8.0625 23.347656 -8.425781 24.484375 -9.15625 C 25.617188 -9.894531 26.421875 -10.875 26.890625 -12.09375 L 37.71875 -12.09375 C 36.769531 -8.375 34.820312 -5.320312 31.875 -2.9375 C 28.925781 -0.550781 25.164062 0.640625 20.59375 0.640625 Z M 27.453125 -22.78125 C 27.410156 -25.332031 26.765625 -27.21875 25.515625 -28.4375 C 24.265625 -29.664062 22.597656 -30.28125 20.515625 -30.28125 C 18.398438 -30.28125 16.71875 -29.617188 15.46875 -28.296875 C 14.21875 -26.984375 13.566406 -25.144531 13.515625 -22.78125 Z M 27.453125 -22.78125 "/></g></g></g></g></g><g transform="matrix(1, 0, 0, 1, 88, 150)"><g clip-path="url(#bd6ed5dd8d)"><g fill="#1b1b1b" fill-opacity="1"><g transform="translate(1.085919, 57.785221)"><g><path d="M 38.8125 -52.6875 C 36.726562 -52.6875 35.082031 -52.296875 33.875 -51.515625 C 32.675781 -50.742188 31.78125 -49.726562 31.1875 -48.46875 C 30.601562 -47.21875 29.960938 -45.390625 29.265625 -42.984375 L 25.5 -29.90625 L 49.234375 -29.90625 L 53 -42.984375 C 53.476562 -44.585938 53.796875 -45.789062 53.953125 -46.59375 C 54.117188 -47.394531 54.203125 -48.0625 54.203125 -48.59375 C 54.203125 -50.144531 53.679688 -51.210938 52.640625 -51.796875 C 51.597656 -52.390625 49.957031 -52.6875 47.71875 -52.6875 L 48.1875 -54.125 L 71.453125 -54.125 L 70.96875 -52.6875 C 68.832031 -52.6875 67.144531 -52.335938 65.90625 -51.640625 C 64.675781 -50.941406 63.753906 -49.9375 63.140625 -48.625 C 62.523438 -47.320312 61.847656 -45.414062 61.109375 -42.90625 L 51.96875 -11.21875 C 51.164062 -8.332031 50.765625 -6.460938 50.765625 -5.609375 C 50.765625 -4.003906 51.285156 -2.90625 52.328125 -2.3125 C 53.367188 -1.726562 54.90625 -1.4375 56.9375 -1.4375 L 56.53125 0 L 33.765625 0 L 34.15625 -1.4375 C 36.1875 -1.4375 37.789062 -1.769531 38.96875 -2.4375 C 40.144531 -3.113281 41.066406 -4.078125 41.734375 -5.328125 C 42.398438 -6.585938 43.054688 -8.367188 43.703125 -10.671875 L 48.4375 -27.1875 L 24.703125 -27.1875 L 21.25 -15.15625 C 20.34375 -12.050781 19.710938 -9.816406 19.359375 -8.453125 C 19.015625 -7.097656 18.84375 -6.125 18.84375 -5.53125 C 18.84375 -4.144531 19.320312 -3.113281 20.28125 -2.4375 C 21.25 -1.769531 22.722656 -1.4375 24.703125 -1.4375 L 24.296875 0 L 1.84375 0 L 1.84375 -1.4375 C 4.25 -1.4375 6.09375 -1.835938 7.375 -2.640625 C 8.65625 -3.441406 9.601562 -4.5625 10.21875 -6 C 10.832031 -7.445312 11.625 -9.859375 12.59375 -13.234375 L 21.171875 -42.984375 C 21.972656 -45.703125 22.375 -47.570312 22.375 -48.59375 C 22.375 -50.25 21.796875 -51.34375 20.640625 -51.875 C 19.492188 -52.414062 17.878906 -52.6875 15.796875 -52.6875 L 16.28125 -54.125 L 39.296875 -54.125 Z M 38.8125 -52.6875 "/></g></g></g><g fill="#1b1b1b" fill-opacity="1"><g transform="translate(61.467948, 57.785221)"><g><path d="M 19.078125 -52.6875 C 20.203125 -52.6875 21.164062 -52.285156 21.96875 -51.484375 C 22.769531 -50.679688 23.171875 -49.742188 23.171875 -48.671875 C 23.171875 -47.546875 22.769531 -46.582031 21.96875 -45.78125 C 21.164062 -44.976562 20.203125 -44.578125 19.078125 -44.578125 C 18.015625 -44.578125 17.082031 -44.976562 16.28125 -45.78125 C 15.476562 -46.582031 15.078125 -47.546875 15.078125 -48.671875 C 15.078125 -49.742188 15.476562 -50.679688 16.28125 -51.484375 C 17.082031 -52.285156 18.015625 -52.6875 19.078125 -52.6875 Z M 11.21875 -7.140625 C 10.789062 -5.742188 10.578125 -4.78125 10.578125 -4.25 C 10.578125 -3.394531 11.035156 -2.96875 11.953125 -2.96875 C 12.585938 -2.96875 13.476562 -3.460938 14.625 -4.453125 C 15.78125 -5.441406 16.972656 -6.898438 18.203125 -8.828125 L 19.484375 -8.015625 C 17.722656 -5.285156 15.742188 -3.101562 13.546875 -1.46875 C 11.359375 0.15625 9.351562 0.96875 7.53125 0.96875 C 6.46875 0.96875 5.65625 0.617188 5.09375 -0.078125 C 4.53125 -0.773438 4.25 -1.710938 4.25 -2.890625 C 4.25 -3.742188 4.410156 -4.734375 4.734375 -5.859375 L 11.140625 -27.90625 C 11.515625 -29.238281 11.703125 -30.175781 11.703125 -30.71875 C 11.703125 -31.40625 11.460938 -32.015625 10.984375 -32.546875 C 10.503906 -33.085938 9.785156 -33.359375 8.828125 -33.359375 C 8.453125 -33.359375 7.4375 -33.222656 5.78125 -32.953125 L 6.171875 -34.3125 L 18.359375 -36.640625 L 19.71875 -36.640625 Z M 11.21875 -7.140625 "/></g></g></g></g></g></svg>